<?xml version="1.0" encoding="iso-8859-1"?>
<!-- Generator: Adobe Illustrator 19.0.0, SVG Export Plug-In . SVG Version: 6.00 Build 0)  -->
<svg version="1.1" id="Layer_1" xmlns="http://www.w3.org/2000/svg" xmlns:xlink="http://www.w3.org/1999/xlink" x="0px" y="0px"
	 viewBox="0 0 512 512" style="enable-background:new 0 0 512 512;" xml:space="preserve">
<g>
	<g>
		<path d="M465.16,0H46.839c-4.621,0-8.366,3.746-8.366,8.366s3.746,8.366,8.366,8.366H465.16c4.622,0,8.366-3.746,8.366-8.366
			S469.782,0,465.16,0z"/>
	</g>
</g>
<g>
	<g>
		<path d="M465.16,55.826H310.812c1.799,5.278,2.847,10.895,3.02,16.733h151.33c4.622,0,8.366-3.746,8.366-8.366
			S469.782,55.826,465.16,55.826z"/>
	</g>
</g>
<g>
	<g>
		<path d="M46.839,55.826c-4.62,0-8.366,3.746-8.366,8.366s3.746,8.366,8.366,8.366h152.377c0.173-5.838,1.22-11.455,3.02-16.733
			H46.839z"/>
	</g>
</g>
<g>
	<g>
		<path d="M46.839,111.653c-4.62,0-8.366,3.746-8.366,8.366c0,4.62,3.746,8.366,8.366,8.366h108.372
			c4.13-6.502,9.317-12.14,15.284-16.733H46.839z"/>
	</g>
</g>
<g>
	<g>
		<path d="M465.16,111.653H341.504c5.967,4.593,11.153,10.23,15.284,16.733H465.16c4.622,0,8.366-3.746,8.366-8.366
			C473.527,115.399,469.782,111.653,465.16,111.653z"/>
	</g>
</g>
<g>
	<g>
		<path d="M46.839,167.48c-4.62,0-8.366,3.746-8.366,8.366s3.746,8.366,8.366,8.366h84.523l6.801-16.733H46.839z"/>
	</g>
</g>
<g>
	<g>
		<path d="M465.16,167.48h-91.324l6.801,16.733h84.523c4.622,0,8.366-3.746,8.366-8.366S469.782,167.48,465.16,167.48z"/>
	</g>
</g>
<g>
	<g>
		<path d="M465.16,223.307h-70.803c-0.791,6.002-2.948,11.728-6.26,16.733h77.065c4.622,0,8.366-3.746,8.366-8.366
			S469.782,223.307,465.16,223.307z"/>
	</g>
</g>
<g>
	<g>
		<path d="M117.643,223.307H46.839c-4.62,0-8.366,3.746-8.366,8.366s3.746,8.366,8.366,8.366h77.065
			C120.592,235.034,118.434,229.308,117.643,223.307z"/>
	</g>
</g>
<g>
	<g>
		<path d="M46.839,279.133c-4.62,0-8.366,3.746-8.366,8.366s3.746,8.366,8.366,8.366h140.636v-16.733H46.839z"/>
	</g>
</g>
<g>
	<g>
		<path d="M465.16,279.133H324.614v16.733H465.16c4.622,0,8.366-3.746,8.366-8.366S469.782,279.133,465.16,279.133z"/>
	</g>
</g>
<g>
	<g>
		<path d="M46.839,390.786c-4.62,0-8.366,3.746-8.366,8.366s3.746,8.366,8.366,8.366h140.645v-16.733H46.839z"/>
	</g>
</g>
<g>
	<g>
		<path d="M465.16,390.786H325.038v16.733H465.16c4.622,0,8.366-3.746,8.366-8.366S469.782,390.786,465.16,390.786z"/>
	</g>
</g>
<g>
	<g>
		<path d="M46.839,334.96c-4.62,0-8.366,3.746-8.366,8.366s3.746,8.366,8.366,8.366h140.645V334.96H46.839z"/>
	</g>
</g>
<g>
	<g>
		<path d="M465.16,334.96H325.038v16.733H465.16c4.622,0,8.366-3.746,8.366-8.366S469.782,334.96,465.16,334.96z"/>
	</g>
</g>
<g>
	<g>
		<path d="M307.638,276.492l-10.002,3.46c-14.993,5.187-31.133,0.881-41.637-10.145c-10.437,10.956-26.552,15.362-41.636,10.145
			l-9.913-3.429l0.009,212.1c0,12.91,10.467,23.377,23.377,23.377s23.377-10.467,23.377-23.377c0-10.999,0-182.047,0-186.856h10.093
			c0,4.567,0,182.272,0,186.856c0,12.91,10.466,23.377,23.378,23.377c12.881,0,23.378-10.437,23.378-23.377
			C308.062,288.287,307.638,276.494,307.638,276.492z"/>
	</g>
</g>
<g>
	<g>
		<path d="M373.129,210.826l-26.606-65.457c-7.48-18.402-25.146-30.294-45.013-30.294h-4.727
			c-10.363,10.228-24.585,16.556-40.26,16.556c-15.048,0-29.451-5.886-40.26-16.556h-5.775c-20.059,0-37.619,12.101-45.013,30.294
			c-5.025,12.363-21.66,53.292-26.605,65.457c-4.306,10.593,1.45,22.208,11.677,25.745c8.216,2.842,58.781,20.338,70.397,24.357
			c10.175,3.521,21.264-1.88,24.78-12.04c3.518-10.168-1.872-21.262-12.04-24.78l-50.986-17.641
			c9.505-23.388,14.083-35.218,16.709-41.567c0.477-1.156,1.706-1.813,2.933-1.568c1.226,0.244,2.109,1.321,2.109,2.571
			c0,9.303,0,22.342,0,26.789l16.465,5.697v-25.964c0-4.584,3.716-8.299,8.299-8.299h53.57c4.584,0,8.299,3.716,8.299,8.299v25.964
			l16.554-5.728v-28.049c0-0.92,0.643-1.716,1.543-1.91c0.9-0.194,1.813,0.268,2.192,1.107c3.006,6.656,8.38,19.165,17.93,42.658
			l-50.988,17.641c-10.178,3.522-15.547,14.648-12.041,24.78c0.028,0.081,0.065,0.158,0.094,0.239
			c3.615,10.024,14.612,15.288,24.687,11.801l70.397-24.357C371.926,232.948,377.355,221.222,373.129,210.826z"/>
	</g>
</g>
<g>
	<g>
		<circle cx="256.526" cy="74.283" r="40.371"/>
	</g>
</g>
<g>
</g>
<g>
</g>
<g>
</g>
<g>
</g>
<g>
</g>
<g>
</g>
<g>
</g>
<g>
</g>
<g>
</g>
<g>
</g>
<g>
</g>
<g>
</g>
<g>
</g>
<g>
</g>
<g>
</g>
</svg>
