<?xml version="1.0" encoding="iso-8859-1"?>
<!-- Generator: Adobe Illustrator 19.0.0, SVG Export Plug-In . SVG Version: 6.00 Build 0)  -->
<svg version="1.1" id="Layer_1" xmlns="http://www.w3.org/2000/svg" xmlns:xlink="http://www.w3.org/1999/xlink" x="0px" y="0px"
	 viewBox="0 0 512.001 512.001" style="enable-background:new 0 0 512.001 512.001;" xml:space="preserve">
<g>
	<g>
		<path d="M26.856,184.445c-21.624,9.733-31.263,35.153-21.531,56.776c3.835,8.52,10.11,15.169,17.624,19.516l25.227-38.347
			c8.075-12.274,22.682-17.662,36.215-14.604C75.302,184.888,49.064,174.45,26.856,184.445z"/>
	</g>
</g>
<g>
	<g>
		<path d="M177.214,405.086c-0.405-3.316-0.403-2.874-31.16-114.609c-2.307-8.383-7.871-15.497-15.453-19.755
			c-7.581-4.26-16.55-5.31-24.911-2.919l-33.626,16.074l21.016-31.944c5.905-8.975,3.416-21.037-5.56-26.942
			c-8.974-5.906-21.037-3.416-26.943,5.559l-57.157,86.88c-4.737,7.199-4.171,16.657,1.388,23.243
			c5.559,6.584,14.788,8.724,22.681,5.261l58.804-25.814l-25.125,18.737l16.224,54.949l-35.753,4.383
			c-9.441,1.158-17.237,7.928-19.704,17.116c-2.468,9.187,0.888,18.953,8.48,24.684l89.133,67.297
			c10.29,7.77,24.928,5.724,32.695-4.563c7.769-10.29,5.725-24.927-4.564-32.696l-43.071-32.519l52.279-6.409
			C169.681,429.528,178.784,417.882,177.214,405.086z"/>
	</g>
</g>
<g>
	<g>
		<path d="M227.437,212.518c-2.808,0.162-5.595-0.04-8.419-0.641l8.581,8.542c6.167,6.138,16.141,6.117,22.281-0.05
			c2.626-2.638,4.115-5.973,4.487-9.405L227.437,212.518z"/>
	</g>
</g>
<g>
	<g>
		<path d="M225.955,149.192l-3.911-11.128c-0.782-2.226-3.222-3.397-5.447-2.614l-115.871,40.726
			c-2.227,0.782-3.397,3.222-2.614,5.447l2.39,6.801c0.782,2.227,3.222,3.397,5.447,2.614l14.195-4.989l3.808,10.833
			c0.782,2.227,3.222,3.397,5.447,2.614l36.105-12.69l13.477,15.326c1.427,1.622,3.692,2.204,5.712,1.493l14.593-5.129
			c-1.945-2.908-3.427-6.161-4.327-9.663l-10.405,3.657l-8.315-9.456l10.204-3.586l8.241,8.204
			c-0.345-1.594-0.576-3.232-0.673-4.911C193.104,167.037,203.885,150.465,225.955,149.192z"/>
	</g>
</g>
<g>
	<g>
		<path d="M511.081,168.724c-0.124-24.732-20.347-44.854-45.08-44.854c-22.436,0-62.794,0-85.687,0
			c-11.454,0-22.817,2.719-33.006,7.953c-10.81,5.554-26.904,14.073-47.628,25.737l-75.166,4.34
			c-10.504,0.606-18.526,9.612-17.92,20.115c0.611,10.584,9.718,18.542,20.116,17.92l79.569-4.593
			c2.897-0.166,5.717-0.994,8.247-2.417c48.626-27.373,45.978-26.06,49.998-27.658c0,190.012-0.415,23.394-0.415,323.875
			c0,12.625,10.235,22.858,22.86,22.858s22.86-10.233,22.86-22.858V306.425h9.869v182.716c0,12.625,10.235,22.858,22.86,22.858
			s22.86-10.233,22.86-22.858l0.009-320.229c0-2.078,1.679-3.766,3.756-3.779c2.079-0.012,3.778,1.655,3.801,3.734
			c0,0.017,0,0.032,0,0.049l0.703,139.948c0.053,10.488,8.57,18.954,19.047,18.954c0.031,0,0.065,0,0.098-0.001
			c10.52-0.053,19.007-8.624,18.954-19.145L511.081,168.724z"/>
	</g>
</g>
<g>
	<g>
		<path d="M452.545,78.355c-5.337,0.001-10.229-2.851-12.862-7.468c-7.607,3.306-16.146,5.062-24.992,5.062
			c-8.912,0-17.505-1.78-25.147-5.13c-2.624,4.66-7.531,7.536-12.902,7.536h-1.764c2.478,19.726,19.3,34.989,39.699,34.989
			c20.399,0,37.22-15.263,39.699-34.989H452.545z"/>
	</g>
</g>
<g>
	<g>
		<path d="M461.78,62.987c-1.609-8.68-5.566-30.098-5.566-30.896C456.214,14.367,437.624,0,414.691,0
			c-21.885,0-39.801,13.087-41.396,29.684h-0.128l-5.798,33.339c-0.324,1.862,1.113,3.567,3,3.567h6.273
			c1.128,0,2.165-0.625,2.692-1.623l5.562-10.534c7.546,6.01,18.103,9.751,29.795,9.751c11.596,0,22.078-3.678,29.611-9.603
			l5.558,10.399c0.53,0.991,1.561,1.609,2.685,1.609h6.242C460.687,66.59,462.129,64.864,461.78,62.987z"/>
	</g>
</g>
<g>
</g>
<g>
</g>
<g>
</g>
<g>
</g>
<g>
</g>
<g>
</g>
<g>
</g>
<g>
</g>
<g>
</g>
<g>
</g>
<g>
</g>
<g>
</g>
<g>
</g>
<g>
</g>
<g>
</g>
</svg>
