<?xml version="1.0" encoding="iso-8859-1"?>
<!-- Generator: Adobe Illustrator 19.0.0, SVG Export Plug-In . SVG Version: 6.00 Build 0)  -->
<svg version="1.1" id="Layer_1" xmlns="http://www.w3.org/2000/svg" xmlns:xlink="http://www.w3.org/1999/xlink" x="0px" y="0px"
	 viewBox="0 0 507.9 507.9" style="enable-background:new 0 0 507.9 507.9;" xml:space="preserve">
<g>
	<g>
		<path d="M391.15,248.7c-18.4-7.9-37.4-14.2-56.3-18.6c-9.9-2-16.2,5-17.2,12.1c-3.8,32.2-31.2,56.5-63.7,56.5
			s-59.9-24.3-63.7-56.5c-0.8-7.5-8.1-14.1-17.2-12.1c-18.9,4.4-37.8,10.7-56.2,18.6c-31,13.3-51,43.8-51,77.7v167.4
			c0,7.8,6.3,14.1,14.1,14.1h348c7.8,0,14.1-6.3,14.1-14.1V326.5C442.05,292.5,422.05,262,391.15,248.7z M342.45,261.2
			c23.6,6.9,44,14.4,53.1,23.6h-64.2C336.05,277.6,339.85,269.7,342.45,261.2z M165.45,261.2c2.5,8.5,6.3,16.4,11,23.6h-64.2
			C120.75,276.2,140.65,268.5,165.45,261.2z M94.05,326.5c0-4.6,0.7-9.1,1.7-13.4h109.5c14.2,8.8,30.9,13.9,48.6,13.9
			c17.8,0,34.5-5.1,48.7-13.9h109.5c1,4.3,1.7,8.8,1.7,13.4v28.3H94.05V326.5z M413.85,479.8H94.05v-26.9h319.8V479.8z
			 M413.85,424.6H94.05V383h319.8V424.6z"/>
	</g>
</g>
<g>
	<g>
		<path d="M253.95,0c-60.4,0-109.6,51.9-109.6,115.7s49.2,115.7,109.6,115.7s109.6-51.9,109.6-115.7S314.35,0,253.95,0z
			 M331.85,99.3c0,7.1-8.4,13.1-18.4,13.1c-5.2,0-18-6.6-31-14.9c12.2-6,24.9-11.3,31-11.3C323.45,86.2,331.85,92.2,331.85,99.3z
			 M253.95,28.2c24.3,0,46.1,11.6,61.1,29.8c-0.5,0-1-0.1-1.5-0.1c-17.6,0.1-46.6,15.4-59.6,22.8c-13-7.4-42-22.7-59.5-22.7
			c-0.5,0-1,0.1-1.5,0.1C207.85,39.8,229.65,28.2,253.95,28.2z M194.45,86.2c5.7,0,18.1,4.9,31,11.3c-13,8.3-25.7,14.9-31,14.9
			c-10,0-18.4-6-18.4-13.1C176.05,92.2,184.45,86.2,194.45,86.2z M253.95,203.3c-38.1,0-70.1-28.4-78.9-66.5
			c21.7,11.3,49.5-2.9,78.9-24.5c27.9,20,55.3,36.2,78.9,24.5C324.05,174.9,292.05,203.3,253.95,203.3z"/>
	</g>
</g>
<g>
</g>
<g>
</g>
<g>
</g>
<g>
</g>
<g>
</g>
<g>
</g>
<g>
</g>
<g>
</g>
<g>
</g>
<g>
</g>
<g>
</g>
<g>
</g>
<g>
</g>
<g>
</g>
<g>
</g>
</svg>
